<?xml version="1.0" encoding="UTF-8" standalone="no"?>
<!-- Generator: Adobe Illustrator 19.0.0, SVG Export Plug-In . SVG Version: 6.00 Build 0)  -->

<svg
   xmlns:dc="http://purl.org/dc/elements/1.1/"
   xmlns:cc="http://creativecommons.org/ns#"
   xmlns:rdf="http://www.w3.org/1999/02/22-rdf-syntax-ns#"
   xmlns:svg="http://www.w3.org/2000/svg"
   xmlns="http://www.w3.org/2000/svg"
   xmlns:sodipodi="http://sodipodi.sourceforge.net/DTD/sodipodi-0.dtd"
   xmlns:inkscape="http://www.inkscape.org/namespaces/inkscape"
   version="1.1"
   id="Layer_1"
   x="0px"
   y="0px"
   viewBox="0 0 297 297"
   style="enable-background:new 0 0 297 297;"
   xml:space="preserve"
   sodipodi:docname="logout.svg"
   inkscape:version="0.92.4 (5da689c313, 2019-01-14)"><metadata
   id="metadata47"><rdf:RDF><cc:Work
       rdf:about=""><dc:format>image/svg+xml</dc:format><dc:type
         rdf:resource="http://purl.org/dc/dcmitype/StillImage" /></cc:Work></rdf:RDF></metadata><defs
   id="defs45" /><sodipodi:namedview
   pagecolor="#ffffff"
   bordercolor="#666666"
   borderopacity="1"
   objecttolerance="10"
   gridtolerance="10"
   guidetolerance="10"
   inkscape:pageopacity="0"
   inkscape:pageshadow="2"
   inkscape:window-width="760"
   inkscape:window-height="480"
   id="namedview43"
   showgrid="false"
   inkscape:zoom="0.79461279"
   inkscape:cx="148.5"
   inkscape:cy="148.5"
   inkscape:window-x="0"
   inkscape:window-y="0"
   inkscape:window-maximized="0"
   inkscape:current-layer="Layer_1" />
<g
   id="g10"
   style="fill:#ff0061;fill-opacity:1">
	<g
   id="g8"
   style="fill:#ff0061;fill-opacity:1">
		<g
   id="g6"
   style="fill:#ff0061;fill-opacity:1">
			<path
   d="M155,6.5c-30.147,0-58.95,9.335-83.294,26.995c-2.789,2.023-3.547,5.853-1.739,8.787L92.83,79.374     c0.962,1.559,2.53,2.649,4.328,3.004c1.796,0.354,3.661-0.054,5.145-1.129c14.23-10.323,31.069-15.78,48.698-15.78     c45.783,0,83.03,37.247,83.03,83.03c0,45.783-37.247,83.03-83.03,83.03c-17.629,0-34.468-5.456-48.698-15.78     c-1.484-1.076-3.349-1.486-5.145-1.129c-1.798,0.355-3.366,1.444-4.328,3.004l-22.863,37.093     c-1.808,2.934-1.05,6.763,1.739,8.787C96.05,281.165,124.853,290.5,155,290.5c78.299,0,142-63.701,142-142S233.299,6.5,155,6.5z"
   id="path2"
   style="fill:#ff0061;fill-opacity:1" />
			<path
   d="M90.401,201.757c1.147-2.142,1.021-4.74-0.326-6.76l-15.463-23.195h93.566c12.849,0,23.302-10.453,23.302-23.302     s-10.453-23.302-23.302-23.302H74.612l15.463-23.195c1.348-2.02,1.473-4.618,0.326-6.76c-1.146-2.141-3.377-3.478-5.806-3.478     H40.019c-2.201,0-4.258,1.1-5.479,2.933L1.106,144.847c-1.475,2.212-1.475,5.093,0,7.306l33.433,50.149     c1.221,1.832,3.278,2.933,5.479,2.933h44.577C87.025,205.235,89.256,203.898,90.401,201.757z"
   id="path4"
   style="fill:#ff0061;fill-opacity:1" />
		</g>
	</g>
</g>
<g
   id="g12">
</g>
<g
   id="g14">
</g>
<g
   id="g16">
</g>
<g
   id="g18">
</g>
<g
   id="g20">
</g>
<g
   id="g22">
</g>
<g
   id="g24">
</g>
<g
   id="g26">
</g>
<g
   id="g28">
</g>
<g
   id="g30">
</g>
<g
   id="g32">
</g>
<g
   id="g34">
</g>
<g
   id="g36">
</g>
<g
   id="g38">
</g>
<g
   id="g40">
</g>
</svg>